<?xml version="1.0" standalone="no"?><!DOCTYPE svg PUBLIC "-//W3C//DTD SVG 1.1//EN" "http://www.w3.org/Graphics/SVG/1.1/DTD/svg11.dtd"><svg t="1552445937049" class="icon" style="" viewBox="0 0 1024 1024" version="1.1" xmlns="http://www.w3.org/2000/svg" p-id="5565" xmlns:xlink="http://www.w3.org/1999/xlink" width="200" height="200"><defs><style type="text/css"></style></defs><path d="M964.266667 884.266667H59.733333v-597.333334c0-24.533333 20.266667-43.733333 43.733334-43.733333h816c24.533333 0 43.733333 20.266667 43.733333 43.733333v597.333334z m-854.4-50.133334h804.266666V292.266667H109.866667v541.866666z" fill="#1296db" p-id="5566"></path><path d="M512 549.333333c-42.666667 0-77.866667-35.2-77.866667-77.866666s35.2-77.866667 77.866667-77.866667 77.866667 35.2 77.866667 77.866667-35.2 77.866667-77.866667 77.866666z m0-105.6c-14.933333 0-27.733333 12.8-27.733333 27.733334s12.8 27.733333 27.733333 27.733333 27.733333-12.8 27.733333-27.733333-12.8-27.733333-27.733333-27.733334zM698.666667 293.333333L320 292.266667v-64c0-50.133333 40.533333-91.733333 91.733333-91.733334h195.2c50.133333 0 91.733333 40.533333 91.733334 91.733334v65.066666z m-328.533334-51.2l278.4 1.066667v-16c0-23.466667-19.2-41.6-41.6-41.6H411.733333c-23.466667 0-41.6 19.2-41.6 41.6v14.933333z" fill="#1296db" p-id="5567"></path><path d="M874.666667 587.733333H149.333333c-49.066667 0-89.6-41.6-89.6-92.8v-65.066666C59.733333 416 71.466667 405.333333 85.333333 405.333333s24.533333 10.666667 24.533334 24.533334v65.066666c0 23.466667 18.133333 42.666667 39.466666 42.666667h725.333334c21.333333 0 39.466667-19.2 39.466666-42.666667v-67.2c0-13.866667 10.666667-24.533333 24.533334-24.533333s24.533333 10.666667 24.533333 24.533333v67.2c1.066667 52.266667-39.466667 92.8-88.533333 92.8z" fill="#1296db" p-id="5568"></path></svg>